<?xml version="1.0" standalone="no"?>
<!DOCTYPE svg PUBLIC "-//W3C//DTD SVG 20010904//EN"
 "http://www.w3.org/TR/2001/REC-SVG-20010904/DTD/svg10.dtd">
<svg version="1.0" xmlns="http://www.w3.org/2000/svg"
 width="535.000000pt" height="535.000000pt" viewBox="0 0 535.000000 535.000000"
 preserveAspectRatio="xMidYMid meet">
<metadata>
Created by potrace 1.14, written by Peter Selinger 2001-2017
</metadata>
<g transform="translate(0.000000,535.000000) scale(0.100000,-0.100000)"
fill="#000000" stroke="none">
<path d="M2440 4870 c-58 -4 -132 -14 -165 -23 -33 -8 -78 -18 -100 -21 -69
-11 -265 -73 -359 -114 -122 -53 -283 -139 -365 -194 -132 -89 -133 -90 -166
-119 -17 -15 -66 -58 -110 -96 -193 -168 -370 -406 -498 -667 -151 -307 -227
-634 -227 -981 0 -455 122 -859 375 -1240 244 -368 638 -685 1038 -836 45 -17
98 -37 117 -45 51 -19 211 -59 315 -78 242 -45 518 -45 760 0 104 19 264 59
315 78 19 8 72 28 117 45 476 180 914 572 1161 1041 245 463 314 1008 196
1535 -98 435 -352 872 -669 1148 -44 38 -93 81 -110 96 -16 14 -39 33 -51 41
-12 8 -58 39 -101 69 -70 48 -274 158 -379 203 -139 60 -310 109 -524 148 -67
13 -450 20 -570 10z m420 -146 c47 -9 117 -19 155 -23 71 -7 115 -23 115 -42
0 -7 -14 -9 -37 -5 -208 33 -445 41 -638 22 -239 -23 -236 -23 -232 -12 5 16
69 33 207 54 157 25 319 27 430 6z m-783 -508 c33 -28 43 -29 430 -47 238 -11
267 -11 314 4 70 23 146 21 213 -4 62 -24 69 -36 64 -110 -3 -42 -5 -45 -44
-57 l-42 -13 -6 -89 c-4 -49 -4 -127 0 -172 7 -80 8 -85 52 -133 52 -58 62
-81 62 -139 0 -52 -19 -157 -31 -172 -4 -6 -13 -33 -19 -62 -10 -42 -22 -62
-77 -118 l-66 -67 40 -36 c36 -33 60 -50 134 -92 15 -9 39 -23 53 -32 14 -10
31 -17 37 -17 7 0 36 -11 65 -25 30 -14 67 -28 84 -32 66 -13 93 -101 45 -148
-37 -38 -104 -34 -191 10 -38 19 -73 35 -79 35 -16 0 -125 56 -146 76 -22 20
-27 17 -48 -34 -12 -28 -16 -89 -18 -254 l-4 -217 27 -50 c14 -28 41 -63 59
-78 18 -16 79 -67 136 -115 57 -48 129 -107 159 -130 40 -32 56 -53 61 -78 8
-35 -4 -79 -24 -92 -20 -13 -76 -9 -106 6 -32 17 -199 148 -253 200 -20 19
-47 40 -60 47 -13 6 -36 23 -51 35 -34 29 -55 21 -86 -31 -12 -21 -37 -43 -59
-53 -53 -24 -181 -136 -219 -193 -46 -67 -105 -77 -160 -26 -26 24 -30 65 -9
105 20 38 196 210 248 241 47 29 157 135 159 154 1 7 2 129 3 272 1 143 5 268
10 278 12 26 -11 21 -53 -11 -64 -51 -224 -122 -274 -122 -64 0 -92 25 -91 81
2 48 31 80 94 100 19 6 42 17 50 24 8 7 26 16 40 20 23 7 176 116 213 151 24
25 22 29 -21 42 -65 20 -151 164 -160 268 -4 55 -1 69 27 126 57 114 79 140
161 180 84 42 103 61 95 98 -3 14 -1 74 4 134 5 60 7 114 5 120 -3 7 -50 11
-147 11 -78 0 -253 3 -388 8 l-246 7 -12 -29 c-7 -16 -24 -40 -38 -53 -14 -12
-40 -45 -57 -73 -18 -27 -74 -92 -124 -143 -54 -56 -106 -121 -128 -160 l-38
-67 -6 -215 c-4 -150 -9 -222 -19 -239 -8 -14 -16 -84 -22 -180 -4 -86 -13
-172 -19 -191 -7 -22 -10 -126 -9 -290 1 -144 -3 -294 -9 -345 -6 -49 -12
-196 -12 -325 -1 -153 -5 -247 -13 -268 -22 -63 -44 -61 651 -56 958 7 1238
11 1352 24 59 6 217 9 361 7 295 -3 309 -7 309 -75 0 -80 -9 -82 -337 -82
-215 0 -295 -4 -353 -16 -65 -14 -202 -16 -1045 -17 -1156 -2 -1255 3 -1271
70 -15 60 30 103 108 103 18 0 38 4 44 8 13 9 25 240 24 467 -1 106 4 185 14
235 11 54 14 137 14 300 -1 263 18 592 38 659 14 48 19 228 6 247 -4 6 -19 14
-34 17 -30 8 -42 34 -40 86 1 24 13 48 42 82 l40 48 1 193 2 193 -71 5 c-80 6
-107 23 -116 74 -13 71 27 106 120 106 58 0 92 15 104 44 18 49 98 63 141 25
21 -19 32 -20 94 -15 151 14 170 18 205 45 63 48 95 52 137 17z"/>
<path d="M1655 3955 c-2 -5 -6 -40 -9 -77 -4 -53 -2 -68 8 -68 16 0 126 126
126 145 0 16 -121 16 -125 0z"/>
<path d="M2808 3458 c-48 -25 -81 -78 -82 -133 -2 -71 59 -116 121 -90 40 17
75 108 71 186 l-3 54 -35 1 c-19 1 -52 -7 -72 -18z"/>
</g>
</svg>
